<mxfile host="app.diagrams.net" agent="Mozilla/5.0 (X11; Linux x86_64) AppleWebKit/537.36 (KHTML, like Gecko) Chrome/133.0.0.0 Safari/537.36" version="26.0.15">
  <diagram name="Page-1" id="nwv0c2wcuBNG24mUAS5j">
    <mxGraphModel>
      <root>
        <mxCell id="0" />
        <mxCell id="1" parent="0" />
        <mxCell id="2" value="Security" style="whiteSpace=wrap;strokeWidth=2;" vertex="1" parent="1">
          <mxGeometry x="451" y="849" width="916" height="228" as="geometry" />
        </mxCell>
        <mxCell id="3" value="Integration" style="whiteSpace=wrap;strokeWidth=2;verticalAlign=top;" vertex="1" parent="1">
          <mxGeometry x="33" y="8" width="318" height="1264" as="geometry" />
        </mxCell>
        <mxCell id="4" value="Setup WiFi Connection" style="ellipse;aspect=fixed;strokeWidth=2;whiteSpace=wrap;" vertex="1" parent="3">
          <mxGeometry x="78" y="46" width="179" height="179" as="geometry" />
        </mxCell>
        <mxCell id="5" value="Configure Bluetooth" style="ellipse;aspect=fixed;strokeWidth=2;whiteSpace=wrap;" vertex="1" parent="3">
          <mxGeometry x="89" y="321" width="156" height="156" as="geometry" />
        </mxCell>
        <mxCell id="6" value="Connect Sensors" style="whiteSpace=wrap;strokeWidth=2;" vertex="1" parent="3">
          <mxGeometry x="75" y="575" width="183" height="54" as="geometry" />
        </mxCell>
        <mxCell id="7" value="Connect Actuators" style="whiteSpace=wrap;strokeWidth=2;" vertex="1" parent="3">
          <mxGeometry x="71" y="726" width="191" height="54" as="geometry" />
        </mxCell>
        <mxCell id="8" value="Connect to Cloud Platform" style="whiteSpace=wrap;strokeWidth=2;" vertex="1" parent="3">
          <mxGeometry x="43" y="878" width="248" height="54" as="geometry" />
        </mxCell>
        <mxCell id="9" value="Set up Database" style="whiteSpace=wrap;strokeWidth=2;" vertex="1" parent="3">
          <mxGeometry x="77" y="1029" width="179" height="54" as="geometry" />
        </mxCell>
        <mxCell id="10" value="Build APIs" style="whiteSpace=wrap;strokeWidth=2;" vertex="1" parent="3">
          <mxGeometry x="100" y="1180" width="133" height="54" as="geometry" />
        </mxCell>
        <mxCell id="11" value="Step 14" style="curved=1;startArrow=none;endArrow=block;exitX=0.5;exitY=1;entryX=0.5;entryY=0;" edge="1" parent="3" source="4" target="5">
          <mxGeometry relative="1" as="geometry">
            <Array as="points" />
          </mxGeometry>
        </mxCell>
        <mxCell id="12" value="Step 15" style="curved=1;startArrow=none;endArrow=block;exitX=0.5;exitY=1.01;entryX=0.5;entryY=0;" edge="1" parent="3" source="5" target="6">
          <mxGeometry relative="1" as="geometry">
            <Array as="points" />
          </mxGeometry>
        </mxCell>
        <mxCell id="13" value="Step 16" style="curved=1;startArrow=none;endArrow=block;exitX=0.5;exitY=1;entryX=0.5;entryY=0.01;" edge="1" parent="3" source="6" target="7">
          <mxGeometry relative="1" as="geometry">
            <Array as="points" />
          </mxGeometry>
        </mxCell>
        <mxCell id="14" value="Step 17" style="curved=1;startArrow=none;endArrow=block;exitX=0.5;exitY=1.01;entryX=0.5;entryY=-0.01;" edge="1" parent="3" source="7" target="8">
          <mxGeometry relative="1" as="geometry">
            <Array as="points" />
          </mxGeometry>
        </mxCell>
        <mxCell id="15" value="Step 18" style="curved=1;startArrow=none;endArrow=block;exitX=0.5;exitY=0.99;entryX=0.5;entryY=0;" edge="1" parent="3" source="8" target="9">
          <mxGeometry relative="1" as="geometry">
            <Array as="points" />
          </mxGeometry>
        </mxCell>
        <mxCell id="16" value="Step 19" style="curved=1;startArrow=none;endArrow=block;exitX=0.5;exitY=1;entryX=0.5;entryY=0.01;" edge="1" parent="3" source="9" target="10">
          <mxGeometry relative="1" as="geometry">
            <Array as="points" />
          </mxGeometry>
        </mxCell>
        <mxCell id="17" value="Software" style="whiteSpace=wrap;strokeWidth=2;" vertex="1" parent="1">
          <mxGeometry x="8" y="1307" width="2282" height="221" as="geometry" />
        </mxCell>
        <mxCell id="18" value="Hardware" style="whiteSpace=wrap;strokeWidth=2;verticalAlign=top;" vertex="1" parent="1">
          <mxGeometry x="45" y="1563" width="293" height="1338" as="geometry" />
        </mxCell>
        <mxCell id="19" value="Insert Raspberry Pi" style="whiteSpace=wrap;strokeWidth=2;" vertex="1" parent="18">
          <mxGeometry x="56" y="46" width="197" height="54" as="geometry" />
        </mxCell>
        <mxCell id="20" value="Insert microSD card" style="whiteSpace=wrap;strokeWidth=2;" vertex="1" parent="18">
          <mxGeometry x="54" y="197" width="201" height="54" as="geometry" />
        </mxCell>
        <mxCell id="21" value="Connect power supply" style="whiteSpace=wrap;strokeWidth=2;" vertex="1" parent="18">
          <mxGeometry x="45" y="348" width="218" height="54" as="geometry" />
        </mxCell>
        <mxCell id="22" value="Connect HDMI monitor" style="whiteSpace=wrap;strokeWidth=2;" vertex="1" parent="18">
          <mxGeometry x="43" y="499" width="223" height="54" as="geometry" />
        </mxCell>
        <mxCell id="23" value="Connect keyboard" style="whiteSpace=wrap;strokeWidth=2;" vertex="1" parent="18">
          <mxGeometry x="59" y="651" width="190" height="54" as="geometry" />
        </mxCell>
        <mxCell id="24" value="Connect mouse" style="whiteSpace=wrap;strokeWidth=2;" vertex="1" parent="18">
          <mxGeometry x="68" y="802" width="172" height="54" as="geometry" />
        </mxCell>
        <mxCell id="25" value="Connect Other Peripherals" style="ellipse;aspect=fixed;strokeWidth=2;whiteSpace=wrap;" vertex="1" parent="18">
          <mxGeometry x="52" y="953" width="204" height="204" as="geometry" />
        </mxCell>
        <mxCell id="26" value="Configure GPIO pins" style="whiteSpace=wrap;strokeWidth=2;" vertex="1" parent="18">
          <mxGeometry x="51" y="1255" width="208" height="54" as="geometry" />
        </mxCell>
        <mxCell id="27" value="Step 1" style="curved=1;startArrow=none;endArrow=block;exitX=0.5;exitY=0.99;entryX=0.5;entryY=0;" edge="1" parent="18" source="19" target="20">
          <mxGeometry relative="1" as="geometry">
            <Array as="points" />
          </mxGeometry>
        </mxCell>
        <mxCell id="28" value="Step 2" style="curved=1;startArrow=none;endArrow=block;exitX=0.5;exitY=1;entryX=0.5;entryY=0;" edge="1" parent="18" source="20" target="21">
          <mxGeometry relative="1" as="geometry">
            <Array as="points" />
          </mxGeometry>
        </mxCell>
        <mxCell id="29" value="Step 3" style="curved=1;startArrow=none;endArrow=block;exitX=0.5;exitY=1;entryX=0.5;entryY=0.01;" edge="1" parent="18" source="21" target="22">
          <mxGeometry relative="1" as="geometry">
            <Array as="points" />
          </mxGeometry>
        </mxCell>
        <mxCell id="30" value="Step 4" style="curved=1;startArrow=none;endArrow=block;exitX=0.5;exitY=1.01;entryX=0.5;entryY=-0.01;" edge="1" parent="18" source="22" target="23">
          <mxGeometry relative="1" as="geometry">
            <Array as="points" />
          </mxGeometry>
        </mxCell>
        <mxCell id="31" value="Step 5" style="curved=1;startArrow=none;endArrow=block;exitX=0.5;exitY=0.99;entryX=0.5;entryY=0;" edge="1" parent="18" source="23" target="24">
          <mxGeometry relative="1" as="geometry">
            <Array as="points" />
          </mxGeometry>
        </mxCell>
        <mxCell id="32" value="Step 6" style="curved=1;startArrow=none;endArrow=block;exitX=0.5;exitY=1;entryX=0.5;entryY=0;" edge="1" parent="18" source="24" target="25">
          <mxGeometry relative="1" as="geometry">
            <Array as="points" />
          </mxGeometry>
        </mxCell>
        <mxCell id="33" value="Step 7" style="curved=1;startArrow=none;endArrow=block;exitX=0.5;exitY=1;entryX=0.5;entryY=0;" edge="1" parent="18" source="25" target="26">
          <mxGeometry relative="1" as="geometry">
            <Array as="points" />
          </mxGeometry>
        </mxCell>
        <mxCell id="34" value="Connect to Internet" style="ellipse;aspect=fixed;strokeWidth=2;whiteSpace=wrap;" vertex="1" parent="1">
          <mxGeometry x="116" y="1342" width="151" height="151" as="geometry" />
        </mxCell>
        <mxCell id="35" value="Install Operating System" style="whiteSpace=wrap;strokeWidth=2;" vertex="1" parent="1">
          <mxGeometry x="476" y="1390" width="234" height="54" as="geometry" />
        </mxCell>
        <mxCell id="36" value="Enable SSH" style="whiteSpace=wrap;strokeWidth=2;" vertex="1" parent="1">
          <mxGeometry x="836" y="1390" width="147" height="54" as="geometry" />
        </mxCell>
        <mxCell id="37" value="Set up VNC" style="whiteSpace=wrap;strokeWidth=2;" vertex="1" parent="1">
          <mxGeometry x="1153" y="1415" width="144" height="54" as="geometry" />
        </mxCell>
        <mxCell id="38" value="Install Python IDE" style="whiteSpace=wrap;strokeWidth=2;" vertex="1" parent="1">
          <mxGeometry x="1475" y="1415" width="187" height="54" as="geometry" />
        </mxCell>
        <mxCell id="39" value="Install Libraries" style="whiteSpace=wrap;strokeWidth=2;" vertex="1" parent="1">
          <mxGeometry x="1771" y="1415" width="168" height="54" as="geometry" />
        </mxCell>
        <mxCell id="40" value="Write &amp; Execute Code" style="whiteSpace=wrap;strokeWidth=2;" vertex="1" parent="1">
          <mxGeometry x="2048" y="1415" width="217" height="54" as="geometry" />
        </mxCell>
        <mxCell id="41" value="Secure SSH Connection" style="whiteSpace=wrap;strokeWidth=2;" vertex="1" parent="1">
          <mxGeometry x="1109" y="988" width="233" height="54" as="geometry" />
        </mxCell>
        <mxCell id="42" value="Set up Firewall" style="whiteSpace=wrap;strokeWidth=2;" vertex="1" parent="1">
          <mxGeometry x="510" y="884" width="166" height="54" as="geometry" />
        </mxCell>
        <mxCell id="43" value="Regular Updates" style="whiteSpace=wrap;strokeWidth=2;" vertex="1" parent="1">
          <mxGeometry x="819" y="884" width="180" height="54" as="geometry" />
        </mxCell>
        <mxCell id="44" value="Enable Encryption" style="whiteSpace=wrap;strokeWidth=2;" vertex="1" parent="1">
          <mxGeometry x="1130" y="884" width="190" height="54" as="geometry" />
        </mxCell>
        <mxCell id="45" value="Step 8" style="curved=1;startArrow=none;endArrow=block;exitX=1;exitY=0.5;entryX=0;entryY=0.51;" edge="1" parent="1" source="34" target="35">
          <mxGeometry relative="1" as="geometry">
            <Array as="points" />
          </mxGeometry>
        </mxCell>
        <mxCell id="46" value="Step 9" style="curved=1;startArrow=none;endArrow=block;exitX=1;exitY=0.51;entryX=0;entryY=0.51;" edge="1" parent="1" source="35" target="36">
          <mxGeometry relative="1" as="geometry">
            <Array as="points" />
          </mxGeometry>
        </mxCell>
        <mxCell id="47" value="Step 10" style="curved=1;startArrow=none;endArrow=block;exitX=1;exitY=0.73;entryX=0;entryY=0.49;" edge="1" parent="1" source="36" target="37">
          <mxGeometry relative="1" as="geometry">
            <Array as="points">
              <mxPoint x="1054" y="1442" />
            </Array>
          </mxGeometry>
        </mxCell>
        <mxCell id="48" value="Step 11" style="curved=1;startArrow=none;endArrow=block;exitX=1;exitY=0.49;entryX=0;entryY=0.49;" edge="1" parent="1" source="37" target="38">
          <mxGeometry relative="1" as="geometry">
            <Array as="points" />
          </mxGeometry>
        </mxCell>
        <mxCell id="49" value="Step 12" style="curved=1;startArrow=none;endArrow=block;exitX=1;exitY=0.49;entryX=0;entryY=0.49;" edge="1" parent="1" source="38" target="39">
          <mxGeometry relative="1" as="geometry">
            <Array as="points" />
          </mxGeometry>
        </mxCell>
        <mxCell id="50" value="Step 13" style="curved=1;startArrow=none;endArrow=block;exitX=1;exitY=0.49;entryX=0;entryY=0.49;" edge="1" parent="1" source="39" target="40">
          <mxGeometry relative="1" as="geometry">
            <Array as="points" />
          </mxGeometry>
        </mxCell>
        <mxCell id="51" value="Step 20" style="curved=1;startArrow=none;endArrow=block;exitX=1;exitY=0.13;entryX=0.44;entryY=1.01;" edge="1" parent="1" source="36" target="41">
          <mxGeometry relative="1" as="geometry">
            <Array as="points">
              <mxPoint x="1054" y="1378" />
            </Array>
          </mxGeometry>
        </mxCell>
        <mxCell id="52" value="Step 21" style="curved=1;startArrow=none;endArrow=block;exitX=1;exitY=0.51;entryX=0;entryY=0.51;" edge="1" parent="1" source="42" target="43">
          <mxGeometry relative="1" as="geometry">
            <Array as="points" />
          </mxGeometry>
        </mxCell>
        <mxCell id="53" value="Step 22" style="curved=1;startArrow=none;endArrow=block;exitX=1;exitY=0.51;entryX=0;entryY=0.51;" edge="1" parent="1" source="43" target="44">
          <mxGeometry relative="1" as="geometry">
            <Array as="points" />
          </mxGeometry>
        </mxCell>
      </root>
    </mxGraphModel>
  </diagram>
</mxfile>
